<svg width="564" height="564" viewBox="0 0 564 564" fill="none" xmlns="http://www.w3.org/2000/svg">
<rect x="16" y="16" width="532" height="532" rx="66" fill="black" stroke="url(#paint0_linear_5_11)" stroke-width="32"/>
<rect x="45" y="50" width="127" height="127" rx="45" fill="white"/>
<rect x="172" y="143" width="127" height="127" rx="45" fill="white"/>
<rect x="299" y="50" width="127" height="127" rx="45" fill="white"/>
<rect x="381" y="194" width="127" height="127" rx="45" fill="white"/>
<path d="M80 486V457.8L126.4 413C131.867 407.667 135.933 402.733 138.6 398.2C141.4 393.667 142.8 388.733 142.8 383.4C142.8 377.533 141.2 373 138 369.8C134.933 366.6 130.667 365 125.2 365C119.2 365 114.467 366.8 111 370.4C107.667 373.867 106 378.733 106 385H76C76 375.4 78 367.133 82 360.2C86.1333 353.133 91.9333 347.667 99.4 343.8C106.867 339.933 115.667 338 125.8 338C135.267 338 143.467 339.8 150.4 343.4C157.467 346.867 162.933 351.733 166.8 358C170.8 364.267 172.8 371.667 172.8 380.2C172.8 389.667 170.467 398.733 165.8 407.4C161.133 416.067 153.667 425.133 143.4 434.6L117 459H174.4V486H80ZM245.722 488C231.189 488 219.655 484.4 211.122 477.2C202.589 470 198.189 460.267 197.922 448H227.922C228.189 452.4 229.855 455.867 232.922 458.4C235.989 460.8 240.255 462 245.722 462C251.589 462 256.055 460.533 259.122 457.6C262.322 454.533 263.922 450.333 263.922 445V430.8C263.922 425.333 262.389 421.2 259.322 418.4C256.255 415.467 251.722 414 245.722 414C242.122 414 238.989 414.533 236.322 415.6C233.789 416.533 231.789 418 230.322 420H201.322L202.322 340H288.522V367H230.522L230.122 405H236.322L229.922 410C229.922 403.867 232.255 399.067 236.922 395.6C241.722 392 248.189 390.2 256.322 390.2C268.189 390.2 277.389 393.8 283.922 401C290.589 408.067 293.922 418 293.922 430.8V445C293.922 458.333 289.655 468.867 281.122 476.6C272.589 484.2 260.789 488 245.722 488ZM365.844 488C355.71 488 346.777 485.933 339.044 481.8C331.444 477.533 325.51 471.6 321.244 464C316.977 456.4 314.844 447.6 314.844 437.6C314.844 430.933 316.11 423.667 318.644 415.8C321.177 407.8 324.51 400.4 328.644 393.6L361.444 340H394.844L350.444 409.2L351.844 410C354.777 405.733 358.51 402.467 363.044 400.2C367.71 397.933 372.91 396.8 378.644 396.8C386.244 396.8 392.91 398.667 398.644 402.4C404.377 406 408.844 411.133 412.044 417.8C415.244 424.333 416.844 432 416.844 440.8C416.844 450.267 414.71 458.533 410.444 465.6C406.177 472.667 400.244 478.2 392.644 482.2C385.044 486.067 376.11 488 365.844 488ZM365.844 463C372.377 463 377.644 461 381.644 457C385.644 453 387.644 447.733 387.644 441.2C387.644 434.533 385.644 429.2 381.644 425.2C377.644 421.067 372.377 419 365.844 419C359.31 419 354.044 421.067 350.044 425.2C346.044 429.2 344.044 434.533 344.044 441.2C344.044 447.733 346.044 453 350.044 457C354.044 461 359.31 463 365.844 463Z" fill="white"/>
<defs>
<linearGradient id="paint0_linear_5_11" x1="532" y1="-38.5" x2="-17.5" y2="552.5" gradientUnits="userSpaceOnUse">
<stop stop-color="#5C00F3"/>
<stop offset="1" stop-color="#16FFD5"/>
</linearGradient>
</defs>
</svg>
